<?xml version="1.0" encoding="utf-8"?>
<svg version="1.1" xmlns="http://www.w3.org/2000/svg" xmlns:xlink="http://www.w3.org/1999/xlink" height="29.409260218956888" width="27.409260218957115">
  <defs>
    <path id="path-1" opacity="1" fill-rule="evenodd" d="M3,10.181818181818182 L3,20.18181818181818 C3,20.18181818181818 3.0000000000000004,22.000000000000004 4.8,22 C6.6,22 19.2,22 19.2,22 C19.2,22 21,21.999999999999996 21,20.18181818181818 C21,18.36363636363636 21,10.181818181818182 21,10.181818181818182 L12,2 L3,10.181818181818182Z"/>
    <path id="path-2" opacity="1" fill-rule="evenodd" d="M10,14 L14,14 C14.551915024494,14 15,14.448084975506 15,15 L15,21 C15,21.551915024494 14.551915024494,22 14,22 L10,22 C9.448084975506,22 9,21.551915024494 9,21 L9,15 C9,14.448084975506 9.448084975506,14 10,14Z"/>
  </defs>
  <g transform="translate(1.7046301094785576, 2.704630109478444)" opacity="1">
    <g opacity="1">
      <g opacity="1">
        <use xlink:href="#path-1" fill-opacity="0" stroke="rgb(67,92,221)" stroke-opacity="1" stroke-width="2"/>
      </g>
    </g>
    <g opacity="1">
      <use xlink:href="#path-2" fill-opacity="0" stroke="rgb(67,92,221)" stroke-opacity="1" stroke-width="2"/>
    </g>
  </g>
</svg>